<svg width="45" height="45" viewBox="0 0 45 45" fill="none" xmlns="http://www.w3.org/2000/svg">
<path d="M11.25 41.25C10.2188 41.25 9.33594 40.8828 8.60156 40.1484C7.86719 39.4141 7.5 38.5312 7.5 37.5V7.5C7.5 6.46875 7.86719 5.58594 8.60156 4.85156C9.33594 4.11719 10.2188 3.75 11.25 3.75H33.75C34.7812 3.75 35.6641 4.11719 36.3984 4.85156C37.1328 5.58594 37.5 6.46875 37.5 7.5V37.5C37.5 38.5312 37.1328 39.4141 36.3984 40.1484C35.6641 40.8828 34.7812 41.25 33.75 41.25H11.25ZM11.25 37.5H33.75V7.5H30V20.625L25.3125 17.8125L20.625 20.625V7.5H11.25V37.5Z" fill="white"/>
</svg>
