<svg width="82" height="82" viewBox="0 0 82 82" fill="none" xmlns="http://www.w3.org/2000/svg">
<path d="M37.5424 71.5077V64.1866C34.5345 63.5056 31.9381 62.2003 29.7531 60.2707C27.5682 58.3412 25.9649 55.6171 24.9434 52.0984L31.2429 49.5446C32.0941 52.2687 33.3569 54.3401 35.0311 55.7589C36.7053 57.1777 38.9044 57.8871 41.6285 57.8871C43.9554 57.8871 45.9275 57.3622 47.5449 56.3123C49.1624 55.2624 49.9711 53.6307 49.9711 51.4174C49.9711 49.4311 49.3468 47.8562 48.0983 46.6928C46.8497 45.5294 43.9554 44.2099 39.4152 42.7343C34.5345 41.202 31.1861 39.3717 29.37 37.2435C27.554 35.1153 26.6459 32.5189 26.6459 29.4543C26.6459 25.7654 27.8377 22.8994 30.2213 20.8563C32.6049 18.8132 35.0453 17.6498 37.5424 17.3661V10.2153H44.3526V17.3661C47.1902 17.8201 49.5313 18.8558 51.3757 20.4732C53.2202 22.0907 54.568 24.0628 55.4193 26.3897L49.1198 29.1138C48.4388 27.2977 47.474 25.9356 46.2254 25.0276C44.9769 24.1196 43.2743 23.6656 41.1177 23.6656C38.6206 23.6656 36.7194 24.2189 35.4141 25.3256C34.1088 26.4322 33.4562 27.8085 33.4562 29.4543C33.4562 31.3271 34.3075 32.8027 36.01 33.881C37.7126 34.9592 40.6637 36.0943 44.8634 37.2861C48.7793 38.4211 51.7446 40.223 53.7593 42.6917C55.774 45.1605 56.7814 48.0123 56.7814 51.2471C56.7814 55.2765 55.5896 58.3412 53.206 60.441C50.8224 62.5408 47.8713 63.8461 44.3526 64.3569V71.5077H37.5424Z" fill="white"/>
</svg>
