<svg width="73" height="73" viewBox="0 0 73 73" fill="none" xmlns="http://www.w3.org/2000/svg">
<path d="M45.7633 15.0043C44.713 15.0043 43.8253 14.6417 43.1001 13.9164C42.3749 13.1912 42.0123 12.3035 42.0123 11.2532C42.0123 10.2029 42.3749 9.31513 43.1001 8.58992C43.8253 7.86471 44.713 7.50211 45.7633 7.50211C46.8136 7.50211 47.7014 7.86471 48.4266 8.58992C49.1518 9.31513 49.5144 10.2029 49.5144 11.2532C49.5144 12.3035 49.1518 13.1912 48.4266 13.9164C47.7014 14.6417 46.8136 15.0043 45.7633 15.0043ZM45.7633 64.5184C44.713 64.5184 43.8253 64.1558 43.1001 63.4306C42.3749 62.7054 42.0123 61.8176 42.0123 60.7673C42.0123 59.717 42.3749 58.8293 43.1001 58.1041C43.8253 57.3789 44.713 57.0163 45.7633 57.0163C46.8136 57.0163 47.7014 57.3789 48.4266 58.1041C49.1518 58.8293 49.5144 59.717 49.5144 60.7673C49.5144 61.8176 49.1518 62.7054 48.4266 63.4306C47.7014 64.1558 46.8136 64.5184 45.7633 64.5184ZM57.7668 25.5073C56.7165 25.5073 55.8287 25.1447 55.1035 24.4194C54.3783 23.6942 54.0157 22.8065 54.0157 21.7562C54.0157 20.7059 54.3783 19.8181 55.1035 19.0929C55.8287 18.3677 56.7165 18.0051 57.7668 18.0051C58.8171 18.0051 59.7048 18.3677 60.43 19.0929C61.1552 19.8181 61.5178 20.7059 61.5178 21.7562C61.5178 22.8065 61.1552 23.6942 60.43 24.4194C59.7048 25.1447 58.8171 25.5073 57.7668 25.5073ZM57.7668 54.0154C56.7165 54.0154 55.8287 53.6528 55.1035 52.9276C54.3783 52.2024 54.0157 51.3146 54.0157 50.2643C54.0157 49.214 54.3783 48.3263 55.1035 47.6011C55.8287 46.8759 56.7165 46.5133 57.7668 46.5133C58.8171 46.5133 59.7048 46.8759 60.43 47.6011C61.1552 48.3263 61.5178 49.214 61.5178 50.2643C61.5178 51.3146 61.1552 52.2024 60.43 52.9276C59.7048 53.6528 58.8171 54.0154 57.7668 54.0154ZM62.268 39.7613C61.2177 39.7613 60.33 39.3987 59.6048 38.6735C58.8796 37.9483 58.517 37.0606 58.517 36.0103C58.517 34.96 58.8796 34.0722 59.6048 33.347C60.33 32.6218 61.2177 32.2592 62.268 32.2592C63.3183 32.2592 64.2061 32.6218 64.9313 33.347C65.6565 34.0722 66.0191 34.96 66.0191 36.0103C66.0191 37.0606 65.6565 37.9483 64.9313 38.6735C64.2061 39.3987 63.3183 39.7613 62.268 39.7613ZM36.0105 66.0188C31.8594 66.0188 27.9582 65.2311 24.3072 63.6557C20.6561 62.0802 17.4802 59.9421 14.7795 57.2413C12.0787 54.5406 9.94058 51.3647 8.36513 47.7136C6.78968 44.0626 6.00195 40.1614 6.00195 36.0103C6.00195 31.8591 6.78968 27.958 8.36513 24.3069C9.94058 20.6559 12.0787 17.48 14.7795 14.7792C17.4802 12.0784 20.6561 9.94031 24.3072 8.36485C27.9582 6.7894 31.8594 6.00168 36.0105 6.00168V12.0034C29.3086 12.0034 23.632 14.3291 18.9807 18.9804C14.3293 23.6317 12.0037 29.3083 12.0037 36.0103C12.0037 42.7122 14.3293 48.3888 18.9807 53.0401C23.632 57.6915 29.3086 60.0171 36.0105 60.0171V66.0188ZM45.9134 50.1143L33.0097 37.2106V21.006H39.0114V34.8099L50.1146 45.9131L45.9134 50.1143Z" fill="white"/>
</svg>
