<svg width="34" height="34" viewBox="0 0 34 34" fill="none" xmlns="http://www.w3.org/2000/svg">
<path d="M31.7812 33.75C27.875 33.75 24.0156 32.8984 20.2031 31.1953C16.3906 29.4922 12.9219 27.0781 9.79688 23.9531C6.67188 20.8281 4.25781 17.3594 2.55469 13.5469C0.851563 9.73438 0 5.875 0 1.96875C0 1.40625 0.1875 0.9375 0.5625 0.5625C0.9375 0.1875 1.40625 0 1.96875 0H9.5625C10 0 10.3906 0.148438 10.7344 0.445312C11.0781 0.742188 11.2812 1.09375 11.3438 1.5L12.5625 8.0625C12.625 8.5625 12.6094 8.98438 12.5156 9.32812C12.4219 9.67188 12.25 9.96875 12 10.2188L7.45312 14.8125C8.07812 15.9688 8.82031 17.0859 9.67969 18.1641C10.5391 19.2422 11.4844 20.2812 12.5156 21.2812C13.4844 22.25 14.5 23.1484 15.5625 23.9766C16.625 24.8047 17.75 25.5625 18.9375 26.25L23.3438 21.8438C23.625 21.5625 23.9922 21.3516 24.4453 21.2109C24.8984 21.0703 25.3438 21.0312 25.7812 21.0938L32.25 22.4062C32.6875 22.5312 33.0469 22.7578 33.3281 23.0859C33.6094 23.4141 33.75 23.7812 33.75 24.1875V31.7812C33.75 32.3438 33.5625 32.8125 33.1875 33.1875C32.8125 33.5625 32.3438 33.75 31.7812 33.75ZM5.67188 11.25L8.76562 8.15625L7.96875 3.75H3.79688C3.95312 5.03125 4.17188 6.29688 4.45312 7.54688C4.73438 8.79688 5.14062 10.0312 5.67188 11.25ZM22.4531 28.0312C23.6719 28.5625 24.9141 28.9844 26.1797 29.2969C27.4453 29.6094 28.7188 29.8125 30 29.9062V25.7812L25.5938 24.8906L22.4531 28.0312Z" fill="#3866B3"/>
</svg>
